<svg width="500" height="500" viewBox="0 0 500 500" fill="none" xmlns="http://www.w3.org/2000/svg">
<path d="M231.782 97.5784C148.178 97.5784 80.4035 165.454 80.4035 249.182C80.4035 307.219 112.967 357.639 160.794 383.117C133.055 372.84 106.935 354.099 88.9165 327.355C37.3969 259.466 53.812 143.361 136.101 89.257C214.42 31.1739 345.332 51.5479 405.109 144.53C469.4 233.242 444.935 379.231 341.188 445.008L304.839 381.994C351.534 356.177 383.161 306.378 383.161 249.182C383.161 165.454 315.386 97.5784 231.782 97.5784Z" fill="#fff"/>
<path fill-rule="evenodd" clip-rule="evenodd" d="M231.741 341.541C282.498 341.541 323.644 300.395 323.644 249.639C323.644 198.882 282.498 157.736 231.741 157.736C180.985 157.736 139.839 198.882 139.839 249.639C139.839 300.395 180.985 341.541 231.741 341.541ZM241.694 267.004C247.566 263.73 254.98 265.836 258.254 271.707L273.526 299.095C276.8 304.967 274.695 312.381 268.823 315.655C262.952 318.929 255.538 316.823 252.264 310.952L236.991 283.564C233.717 277.692 235.823 270.278 241.694 267.004Z" fill="#fff"/>
</svg>
